<svg xmlns="http://www.w3.org/2000/svg"
  xmlns:xlink="http://www.w3.org/1999/xlink" aria-hidden="true" role="img" width="1em" height="1em" preserveAspectRatio="xMidYMid meet" viewBox="0 0 28 28">
  <g fill="none">
    <path d="M18.5 16.4a.9.9 0 0 0 0 1.8h3a.9.9 0 0 0 0-1.8h-3z" fill="white"/>
    <path d="M4.75 5A2.75 2.75 0 0 0 2 7.75v11.5A2.75 2.75 0 0 0 4.75 22h18.5A2.75 2.75 0 0 0 26 19.25V7.75A2.75 2.75 0 0 0 23.25 5H4.75zM3.5 19.25V11.5h21v7.75c0 .69-.56 1.25-1.25 1.25H4.75c-.69 0-1.25-.56-1.25-1.25zm0-9.25V7.75c0-.69.56-1.25 1.25-1.25h18.5c.69 0 1.25.56 1.25 1.25V10h-21z" fill="white"/>
  </g>
</svg>