<svg xmlns="http://www.w3.org/2000/svg" viewBox="0 0 39.248 36.975"><defs><style>.a{fill:#0e3368;}.b{fill:#4ccd8a;}.c{fill:#fff;}</style></defs><title>i_livraison</title><path class="a" d="M38.148,26a.968.968,0,0,0-.1-.221,7,7,0,0,0-3.434-2.675l-.069-.03c-.163-.2-.365-.412-.6-.661-.508-.546-1.325-1.424-2.562-2.76a10.257,10.257,0,1,0-12.928-4.113L7.194,15.528c-.012,0-.078,0-.119.007a2.4,2.4,0,0,0-2.082,2.426v3.01H.75a.75.75,0,0,0,0,1.5H4.993v1.043H2.574a.75.75,0,1,0,0,1.5H4.993v1.023H3.675a.75.75,0,0,0,0,1.5h1.3a5.485,5.485,0,0,0,.518,4.341c.725,2.015,1.042,2.565,1.81,2.565H9.608a4,4,0,0,0,7.443,0l9.651-.01a4,4,0,0,0,7.459-.025,3.063,3.063,0,0,0,.371-.03l0,.016A10.626,10.626,0,0,0,38.9,32.072C39.2,31.692,39.774,30.984,38.148,26Zm-17.5-10.791A8.267,8.267,0,0,1,27.247,2a8.529,8.529,0,0,1,1.2.086,8.264,8.264,0,0,1,3.763,14.8,8.151,8.151,0,0,1-2.285,1.192l-.365-.4a6.4,6.4,0,0,0-5.512-2.133c-.264,0-.535,0-.84,0l-2.266,0C20.845,15.432,20.734,15.333,20.644,15.212ZM13.329,34.975a2.012,2.012,0,1,1,2.012-2.012A2.012,2.012,0,0,1,13.329,34.975Zm17.1,0a2.012,2.012,0,1,1,2.012-2.012A2.012,2.012,0,0,1,30.427,34.975Zm3.952-2.605a3.992,3.992,0,0,0-7.91.059l-9.181.009a3.991,3.991,0,0,0-7.918,0H7.863c-.149-.338-.351-.85-.526-1.337a.956.956,0,0,0-.11-.219A3.458,3.458,0,0,1,6.924,28a1,1,0,0,0,.069-.363v-9.66a.394.394,0,0,1,.285-.444l15.911.021c.309,0,.6,0,.88,0a4.472,4.472,0,0,1,4.048,1.517c2.307,2.494,3.642,3.93,4.369,4.712.4.433.613.659.7.75a1.09,1.09,0,0,0,.137.144,1.043,1.043,0,0,0,.277.171l.221.1a5.271,5.271,0,0,1,2.461,1.774,16.3,16.3,0,0,1,.975,4.169A10.709,10.709,0,0,1,34.379,32.37Z"/><path class="b" d="M33.884,5.319a8.211,8.211,0,0,0-5.437-3.233A8.578,8.578,0,0,0,27.264,2v8.263H19.008a8.2,8.2,0,0,0,1.636,4.947c.09.121.2.22.3.334l2.266,0c.305,0,.576,0,.84,0a6.4,6.4,0,0,1,5.512,2.133l.365.4A8.251,8.251,0,0,0,33.884,5.319Z"/><path class="c" d="M27.247,2a8.27,8.27,0,0,0-8.162,7.082,8.423,8.423,0,0,0-.077,1.183h8.256V2"/><path class="a" d="M32.276,8.068a1,1,0,0,0-1.342-.448l-2.67,1.335V4.4a1,1,0,0,0-2,0v6.176c0,.01.006.019.006.03a.975.975,0,0,0,.04.2.928.928,0,0,0,.052.191c0,.01,0,.02.008.03a.972.972,0,0,0,.179.247.463.463,0,0,0,.048.04.993.993,0,0,0,.234.158c.03.014.058.027.089.038a.979.979,0,0,0,.342.069h0l.006,0a.991.991,0,0,0,.413-.1c.009,0,.019,0,.027-.007L31.829,9.41A1,1,0,0,0,32.276,8.068Z"/><circle class="b" cx="30.427" cy="32.963" r="2.012"/><circle class="b" cx="13.329" cy="32.963" r="2.012"/><path class="c" d="M33.816,24.94l-.221-.1a1.043,1.043,0,0,1-.277-.171,1.09,1.09,0,0,1-.137-.144c-.082-.091-.292-.317-.7-.75-.727-.782-2.062-2.218-4.369-4.712a4.472,4.472,0,0,0-4.048-1.517c-.281,0-.571,0-.88,0L7.278,17.528a.394.394,0,0,0-.285.444v9.66A1,1,0,0,1,6.924,28a3.458,3.458,0,0,0,.3,2.892.956.956,0,0,1,.11.219c.175.487.377,1,.526,1.337H9.37a3.991,3.991,0,0,1,7.918,0l9.181-.009a3.992,3.992,0,0,1,7.91-.059,10.709,10.709,0,0,0,2.873-1.487,16.3,16.3,0,0,0-.975-4.169A5.271,5.271,0,0,0,33.816,24.94Z"/></svg>