<svg xmlns="http://www.w3.org/2000/svg"
  xmlns:xlink="http://www.w3.org/1999/xlink" aria-hidden="true" role="img" width="1em" height="1em" preserveAspectRatio="xMidYMid meet" viewBox="0 0 20 20">
  <g fill="none">
    <path d="M7.224 8.342a.5.5 0 0 1-.316.632a1.22 1.22 0 0 0-.717.605c-.186.348-.312.923-.195 1.859a.5.5 0 0 1-.992.124c-.133-1.064-.01-1.864.305-2.454c.32-.6.807-.924 1.282-1.082a.5.5 0 0 1 .633.316zm4.934-5.368a.5.5 0 0 0-.317-.948c-.938.312-1.522 1.082-1.866 1.907a5.274 5.274 0 0 0-.127.339a3.998 3.998 0 0 0-.711-.963a3.99 3.99 0 0 0-2.94-1.17c-.579.016-1.043.48-1.059 1.059a3.99 3.99 0 0 0 1.201 2.97A4.002 4.002 0 0 0 3.197 9.76l-.006.074a8.5 8.5 0 0 0 1.011 4.748l.359.657c.01.018.02.035.032.052l1 1.4a2.685 2.685 0 0 0 4.084.339a.456.456 0 0 1 .645 0a2.685 2.685 0 0 0 4.084-.338l1-1.401a.493.493 0 0 0 .032-.052l.359-.657a8.5 8.5 0 0 0 1.01-4.748l-.005-.074a4 4 0 0 0-4.645-3.626L10.5 6.41c.01-.681.13-1.448.399-2.093c.28-.675.696-1.155 1.259-1.343zM8.718 6.28l-.154-.025a2.985 2.985 0 0 1-1.549-.824a2.99 2.99 0 0 1-.877-2.205a.088.088 0 0 1 .087-.087a2.99 2.99 0 0 1 2.205.878c.607.607.9 1.408.877 2.204a.088.088 0 0 1-.087.088a3.02 3.02 0 0 1-.502-.029zm-.328.96l.173.029l.779.13a4 4 0 0 0 1.315 0l1.664-.278a3 3 0 0 1 3.484 2.72l.006.074a7.5 7.5 0 0 1-.892 4.19l-.344.63l-.983 1.376a1.685 1.685 0 0 1-2.563.213a1.456 1.456 0 0 0-2.06 0a1.685 1.685 0 0 1-2.562-.213l-.983-1.376l-.344-.63a7.5 7.5 0 0 1-.892-4.19l.006-.074a3 3 0 0 1 3.484-2.72l.712.119z" fill="white"/>
  </g>
</svg>