<svg width="70" height="70" viewBox="0 0 70 70" fill="none"
  xmlns="http://www.w3.org/2000/svg">
  <path d="M64.1667 49.5892C64.1654 53.5779 62.8019 57.4466 60.3021 60.5547C57.8023 63.6629 54.316 65.8242 50.4204 66.6808L48.5596 61.0983C50.2636 60.8177 51.8841 60.1625 53.3044 59.18C54.7247 58.1975 55.9093 56.9122 56.7729 55.4167H49.5833C48.0362 55.4167 46.5525 54.8021 45.4585 53.7081C44.3646 52.6142 43.75 51.1304 43.75 49.5833V37.9167C43.75 36.3696 44.3646 34.8859 45.4585 33.7919C46.5525 32.6979 48.0362 32.0833 49.5833 32.0833H58.1525C57.4407 26.4451 54.696 21.2604 50.4333 17.502C46.1706 13.7436 40.683 11.6698 35 11.6698C29.317 11.6698 23.8293 13.7436 19.5667 17.502C15.304 21.2604 12.5592 26.4451 11.8475 32.0833H20.4166C21.9637 32.0833 23.4475 32.6979 24.5414 33.7919C25.6354 34.8859 26.25 36.3696 26.25 37.9167V49.5833C26.25 51.1304 25.6354 52.6142 24.5414 53.7081C23.4475 54.8021 21.9637 55.4167 20.4166 55.4167H11.6666C10.1196 55.4167 8.63582 54.8021 7.54186 53.7081C6.44789 52.6142 5.83331 51.1304 5.83331 49.5833V35C5.83331 18.8913 18.8912 5.83334 35 5.83334C51.1087 5.83334 64.1667 18.8913 64.1667 35V49.5892ZM58.3333 49.5833V37.9167H49.5833V49.5833H58.3333ZM11.6666 37.9167V49.5833H20.4166V37.9167H11.6666Z" fill="white"/>
</svg>