<svg id="Calque_1" xmlns="http://www.w3.org/2000/svg" viewBox="0 0 61.1 64.3" enable-background="new 0 0 61.1 64.3"><style>.st0{fill:#fff}.st1{filter:url(#Adobe_OpacityMaskFilter)}.st2{mask:url(#mask-2_1_);fill:#0e3368}.st3{filter:url(#Adobe_OpacityMaskFilter_1_)}.st4{mask:url(#mask-4_1_);fill:#4ccd8a}.st5{filter:url(#Adobe_OpacityMaskFilter_2_)}.st6{mask:url(#mask-4_2_);fill:#4ccd8a}.st7{filter:url(#Adobe_OpacityMaskFilter_3_)}.st8{mask:url(#mask-4_3_);fill:#4ccd8a}.st9{filter:url(#Adobe_OpacityMaskFilter_4_)}.st10{mask:url(#mask-4_4_);fill:#4ccd8a}.st11{filter:url(#Adobe_OpacityMaskFilter_5_)}.st12{mask:url(#mask-4_5_);fill:#0e3368}</style><title>CB</title><g id="HP_v3"><g id="LVP_HP_loggedin-Copy" transform="translate(-547 -2113)"><g id="reassurance" transform="translate(-17 1968)"><g id="Icons" transform="translate(291 131)"><g id="CB" transform="translate(273.343 3.918)"><g id="Group-9" transform="translate(0 10.173)"><path id="Fill-1_1_" class="st0" d="M56.2 12.3c2.5 0 4.6 2.1 4.6 4.6v30.3c0 2.5-2.1 4.6-4.6 4.6H8.4c-2.5 0-4.6-2.1-4.6-4.6V16.9c0-2.5 2.1-4.6 4.6-4.6h47.8z"/><g id="Group-5" transform="translate(0 .27)"><defs><filter id="Adobe_OpacityMaskFilter" filterUnits="userSpaceOnUse" x="0" y="10.4" width="60.2" height="42.7"><feColorMatrix values="1 0 0 0 0 0 1 0 0 0 0 0 1 0 0 0 0 0 1 0"/></filter></defs><mask maskUnits="userSpaceOnUse" x="0" y="10.4" width="60.2" height="42.7" id="mask-2_1_"><g class="st1"><path id="path-1_1_" class="st0" d="M0 10.4h60.2v42.7H0z"/></g></mask><path id="Fill-3" class="st2" d="M6.2 13.6c-1.7 0-3 1.4-3 3v30.3c0 1.7 1.4 3 3 3H54c1.7 0 3-1.4 3-3V16.6c0-1.7-1.4-3-3-3H6.2zM54 53.1H6.2c-3.4 0-6.2-2.8-6.2-6.2V16.6c0-3.4 2.8-6.2 6.2-6.2H54c3.4 0 6.2 2.8 6.2 6.2v30.3c0 3.4-2.8 6.2-6.2 6.2z"/></g><defs><filter id="Adobe_OpacityMaskFilter_1_" filterUnits="userSpaceOnUse" x="3.2" y="37.9" width="53.9" height="6.2"><feColorMatrix values="1 0 0 0 0 0 1 0 0 0 0 0 1 0 0 0 0 0 1 0"/></filter></defs><mask maskUnits="userSpaceOnUse" x="3.2" y="37.9" width="53.9" height="6.2" id="mask-4_1_"><g class="st3"><path id="path-3_1_" class="st0" d="M0 53.3h60.2V10.7H0z"/></g></mask><path id="Fill-6" class="st4" d="M3.2 44.1H57v-6.2H3.2z"/><defs><filter id="Adobe_OpacityMaskFilter_2_" filterUnits="userSpaceOnUse" x="8.4" y="19.6" width="11.9" height="9.8"><feColorMatrix values="1 0 0 0 0 0 1 0 0 0 0 0 1 0 0 0 0 0 1 0"/></filter></defs><mask maskUnits="userSpaceOnUse" x="8.4" y="19.6" width="11.9" height="9.8" id="mask-4_2_"><g class="st5"><path id="path-3_2_" class="st0" d="M0 53.3h60.2V10.7H0z"/></g></mask><path id="Fill-8" class="st6" d="M10.4 29.4c-1.1 0-2-.9-2-2v-5.7c0-1.1.9-2 2-2h7.8c1.1 0 2 .9 2 2v5.7c0 1.1-.9 2-2 2h-7.8z"/><defs><filter id="Adobe_OpacityMaskFilter_3_" filterUnits="userSpaceOnUse" x="9.6" y="24.5" width="2.9" height="0"><feColorMatrix values="1 0 0 0 0 0 1 0 0 0 0 0 1 0 0 0 0 0 1 0"/></filter></defs><mask maskUnits="userSpaceOnUse" x="9.6" y="24.5" width="2.9" height="0" id="mask-4_3_"><g class="st7"><path id="path-3_3_" class="st0" d="M0 53.3h60.2V10.7H0z"/></g></mask><path id="Fill-9" class="st8" d="M9.6 24.5h2.9"/><defs><filter id="Adobe_OpacityMaskFilter_4_" filterUnits="userSpaceOnUse" x="16.1" y="24.5" width="2.9" height="0"><feColorMatrix values="1 0 0 0 0 0 1 0 0 0 0 0 1 0 0 0 0 0 1 0"/></filter></defs><mask maskUnits="userSpaceOnUse" x="16.1" y="24.5" width="2.9" height="0" id="mask-4_4_"><g class="st9"><path id="path-3_4_" class="st0" d="M0 53.3h60.2V10.7H0z"/></g></mask><path id="Fill-10" class="st10" d="M16.1 24.5H19"/><defs><filter id="Adobe_OpacityMaskFilter_5_" filterUnits="userSpaceOnUse" x="7.2" y="18.4" width="14.3" height="12.1"><feColorMatrix values="1 0 0 0 0 0 1 0 0 0 0 0 1 0 0 0 0 0 1 0"/></filter></defs><mask maskUnits="userSpaceOnUse" x="7.2" y="18.4" width="14.3" height="12.1" id="mask-4_5_"><g class="st11"><path id="path-3_5_" class="st0" d="M0 53.3h60.2V10.7H0z"/></g></mask><path id="Fill-11" class="st12" d="M18.2 28.2h-7.9c-.5 0-.8-.4-.8-.8v-1.7h2.9c.7 0 1.2-.5 1.2-1.2s-.5-1.2-1.2-1.2H9.6v-1.7c0-.5.4-.8.8-.8h7.9c.5 0 .8.4.8.8v1.7h-2.9c-.7 0-1.2.5-1.2 1.2s.5 1.2 1.2 1.2H19v1.7c.1.4-.3.8-.8.8m0-9.8h-7.9c-1.8 0-3.2 1.4-3.2 3.2v5.7c0 1.8 1.4 3.2 3.2 3.2h7.9c1.8 0 3.2-1.4 3.2-3.2v-5.7c.1-1.7-1.4-3.2-3.2-3.2"/></g></g></g></g></g></g></svg>