<svg xmlns="http://www.w3.org/2000/svg" viewBox="0 0 39.25 38.856"><defs><style>.a{fill:#4ccd8a;}.b{fill:#fff;}.c{fill:#0e3368;}</style></defs><title>i_drive_qualite</title><path class="a" d="M26.31,10.9a1,1,0,0,1-2,0V8.354H14.428V10.9a1,1,0,0,1-2,0V8.354H7.166l.261,5.454H31.311l.26-5.454H26.31Z"/><path class="b" d="M31.311,13.808H7.427L8.08,27.47a4.866,4.866,0,0,0,4.578,5.121H20.8a7.993,7.993,0,0,1-.751-3.254,8.978,8.978,0,0,1,.385-2.659,6.665,6.665,0,0,1,3.543-4.03l.028-.013a6.144,6.144,0,0,1,3.568-.5l1.2.191a5.644,5.644,0,0,0-1.83-3.93,1,1,0,0,1,1.385-1.443,8.632,8.632,0,0,1,1.7,2.332,5.181,5.181,0,0,1,.944-1.078h0c.041-.036.088-.065.13-.1"/><path class="c" d="M38.94,27.1a6.989,6.989,0,0,0-3.757-4.408c.095-.072.2-.129.291-.207a4.792,4.792,0,0,0,1.584-4.874,1,1,0,0,0-.77-.721,6.486,6.486,0,0,0-3.129.147l.46-9.636a1,1,0,0,0-1-1.047H26.28a6.935,6.935,0,0,0-13.822,0H6.117a1,1,0,0,0-1,1.047L5.6,17.521H.75a.75.75,0,0,0,0,1.5H5.674l.056,1.17H2.664a.75.75,0,0,0,0,1.5H5.8l.055,1.151H3.822a.75.75,0,1,0,0,1.5H5.929l.152,3.176a6.846,6.846,0,0,0,6.577,7.073h9.291a15.616,15.616,0,0,0,3.5,3.575,3.811,3.811,0,0,0,2.2.69,5.653,5.653,0,0,0,1.992-.462,5.853,5.853,0,0,0,2.007.462,3.792,3.792,0,0,0,2.2-.692c.552-.382,5.4-3.875,5.4-8.827A8.381,8.381,0,0,0,38.94,27.1Zm-3.724-8.334a2.853,2.853,0,0,1-1.05,2.206,4.263,4.263,0,0,1-2.933.96,2.855,2.855,0,0,1,1.048-2.206A4.228,4.228,0,0,1,35.216,18.766ZM19.368,2A4.932,4.932,0,0,1,24.25,6.354H14.487A4.931,4.931,0,0,1,19.368,2Zm-6.71,30.591A4.866,4.866,0,0,1,8.08,27.47L7.166,8.354h5.262V10.9a1,1,0,0,0,2,0V8.354H24.31V10.9a1,1,0,0,0,2,0V8.354h5.261l-.466,9.758c-.042.035-.089.064-.13.1h0a5.181,5.181,0,0,0-.944,1.078,8.632,8.632,0,0,0-1.7-2.332A1,1,0,0,0,26.944,18.4a5.644,5.644,0,0,1,1.83,3.93l-1.2-.191a6.144,6.144,0,0,0-3.568.5l-.028.013a6.665,6.665,0,0,0-3.543,4.03,8.978,8.978,0,0,0-.385,2.659,7.993,7.993,0,0,0,.751,3.254ZM32.709,36.52a1.811,1.811,0,0,1-1.06.336,3.887,3.887,0,0,1-1.265-.32,1.979,1.979,0,0,0-.735-.141,1.954,1.954,0,0,0-.733.141,3.848,3.848,0,0,1-1.266.32,1.822,1.822,0,0,1-1.061-.335c-.959-.665-4.539-3.829-4.539-7.184a7.005,7.005,0,0,1,.291-2.055,4.677,4.677,0,0,1,2.492-2.826l.021-.01a4.143,4.143,0,0,1,2.405-.332l1.785.285a3.78,3.78,0,0,0,1.224-.005l1.554-.264a4.137,4.137,0,0,1,2.319.274,5.069,5.069,0,0,1,2.877,3.246,6.433,6.433,0,0,1,.232,1.687C37.25,33.336,32.9,36.391,32.709,36.52Z"/><path class="a" d="M26.589,36.521a1.822,1.822,0,0,0,1.061.335,3.848,3.848,0,0,0,1.266-.32,1.954,1.954,0,0,1,.733-.141,1.979,1.979,0,0,1,.735.141,3.887,3.887,0,0,0,1.265.32,1.811,1.811,0,0,0,1.06-.336c.187-.129,4.541-3.184,4.541-7.183a6.433,6.433,0,0,0-.232-1.687A5.069,5.069,0,0,0,34.141,24.4a4.137,4.137,0,0,0-2.319-.274l-1.554.264a3.78,3.78,0,0,1-1.224.005l-1.785-.285a4.143,4.143,0,0,0-2.405.332l-.021.01a4.677,4.677,0,0,0-2.492,2.826,7.005,7.005,0,0,0-.291,2.055C22.05,32.692,25.63,35.856,26.589,36.521Z"/><path class="b" d="M31.233,21.932a4.263,4.263,0,0,0,2.933-.96,2.853,2.853,0,0,0,1.05-2.206,4.228,4.228,0,0,0-2.935.96A2.855,2.855,0,0,0,31.233,21.932Z"/></svg>